<?xml version="1.0" standalone="no"?><!DOCTYPE svg PUBLIC "-//W3C//DTD SVG 1.1//EN" "http://www.w3.org/Graphics/SVG/1.1/DTD/svg11.dtd">
<svg t="1678420376539" class="icon" viewBox="0 0 1024 1024" version="1.1" xmlns="http://www.w3.org/2000/svg" p-id="5636" xmlns:xlink="http://www.w3.org/1999/xlink">
    <path d="M365.44 112.32v133.76h237.888a340.928 340.928 0 0 1 340.928 335.36v5.632a340.928 340.928 0 0 1-335.296 340.864l-5.632 0.064h-324.48a16 16 0 0 1-16-16v-64a16 16 0 0 1 16-16h324.48a244.928 244.928 0 0 0 5.12-489.856H130.432a16 16 0 0 1-11.136-27.52l218.88-213.76a16 16 0 0 1 27.2 11.456z"
          fill="#000000" p-id="5637"></path>
</svg>