<?xml version="1.0" standalone="no"?><!DOCTYPE svg PUBLIC "-//W3C//DTD SVG 1.1//EN" "http://www.w3.org/Graphics/SVG/1.1/DTD/svg11.dtd">
<svg t="1678431707305" class="icon" viewBox="0 0 1024 1024" version="1.1" xmlns="http://www.w3.org/2000/svg" p-id="3497" xmlns:xlink="http://www.w3.org/1999/xlink">
    <path d="M158.1 149.9h518.3v230.3c0 13.8 11.2 25 25 25s25-11.2 25-25V148.9c0-27.1-21.9-49-49-49H157.1c-27.1 0-49 21.9-49 49v650.3c0 27.1 21.9 49 49 49H408c13.8 0 25-11.2 25-25s-11.2-25-25-25H158.1V149.9z"
          p-id="3498" fill="#ffffff"></path>
    <path d="M565.1 276.6c0-13.8-11.2-25-25-25H294.4c-13.8 0-25 11.2-25 25s11.2 25 25 25h245.7c13.8 0 25-11.2 25-25zM565.1 422.2c0-13.8-11.2-25-25-25H294.4c-13.8 0-25 11.2-25 25s11.2 25 25 25h245.7c13.8 0 25-11.2 25-25zM294.4 542.7c-13.8 0-25 11.2-25 25s11.2 25 25 25h100.2c13.8 0 25-11.2 25-25s-11.2-25-25-25H294.4zM856.6 544.3c-41.6-41.6-96.8-64.5-155.6-64.5s-114.1 22.9-155.6 64.5c-41.6 41.6-64.5 96.8-64.5 155.6s22.9 114.1 64.5 155.6C587 897.1 642.2 920 701 920s114.1-22.9 155.6-64.5C898.1 814 921 758.8 921 700s-22.9-114.1-64.4-155.7zM703.3 870.1c-95.7 1.3-173.8-76.8-172.5-172.5 1.2-90.2 77.5-166.5 167.7-167.7 95.7-1.3 173.8 76.8 172.5 172.5-1.2 90.1-77.5 166.4-167.7 167.7z"
          p-id="3499" fill="#ffffff"></path>
    <path d="M695.5 700m-25 0a25 25 0 1 0 50 0 25 25 0 1 0-50 0Z" p-id="3500" fill="#ffffff"></path>
    <path d="M612.6 700m-25 0a25 25 0 1 0 50 0 25 25 0 1 0-50 0Z" p-id="3501" fill="#ffffff"></path>
    <path d="M778.3 700m-25 0a25 25 0 1 0 50 0 25 25 0 1 0-50 0Z" p-id="3502" fill="#ffffff"></path>
</svg>